<svg xmlns="http://www.w3.org/2000/svg" version="1.1" xmlns:xlink="http://www.w3.org/1999/xlink" xmlns:svgjs="http://svgjs.com/svgjs" width="1440" height="560" preserveAspectRatio="none" viewBox="0 0 1440 560"><g mask="url(&quot;#SvgjsMask1008&quot;)" fill="none"><rect width="1440" height="560" x="0" y="0" fill="#0e2a47"></rect><path d="M640.44 351.68a1.43 1.43 0 1 0 0.84-2.74z" stroke="#d3b714"></path><path d="M1002.61 85.36L1034.34 85.36L1034.34 117.09L1002.61 117.09z" fill="#d3b714"></path><path d="M657.05 503.2 a53.31 53.31 0 1 0 106.62 0 a53.31 53.31 0 1 0 -106.62 0z" fill="#d3b714"></path><path d="M659 116.85a17.67 17.67 0 1 0-14.43-32.26z" fill="#e73635"></path><path d="M584.19 430.62 a45.95 45.95 0 1 0 91.9 0 a45.95 45.95 0 1 0 -91.9 0z" fill="#037b0b"></path><path d="M185.85 291.08L233.66 291.08L233.66 338.89L185.85 338.89z" stroke="#037b0b"></path><path d="M710.09 416.39L720.1 416.39L720.1 426.4L710.09 426.4z" stroke="#037b0b"></path><path d="M775.84 320.89L790.19 320.89L790.19 329.02L775.84 329.02z" stroke="#e73635"></path><path d="M1045.62 458.19 a10.44 10.44 0 1 0 20.88 0 a10.44 10.44 0 1 0 -20.88 0z" stroke="#e73635"></path><path d="M280.65 125.58L288.24 125.58L288.24 169.36L280.65 169.36z" fill="#e73635"></path><path d="M1003.42 523.33L1003.96 523.33L1003.96 565.23L1003.42 565.23z" fill="#e73635"></path><path d="M1192.32 228.5L1206.03 228.5L1206.03 242.21L1192.32 242.21z" fill="#d3b714"></path><path d="M259.54 328.93L314.86 328.93L314.86 336.34L259.54 336.34z" stroke="#d3b714"></path><path d="M263.47 66.72L310.81 66.72L310.81 114.06L263.47 114.06z" stroke="#037b0b"></path><path d="M1026.94 66.63L1063.82 66.63L1063.82 103.51L1026.94 103.51z" stroke="#e73635"></path><path d="M817.87 454.61L839.68 454.61L839.68 476.42L817.87 476.42z" stroke="#d3b714"></path><path d="M732.72 401.81L732.93 401.81L732.93 452.03L732.72 452.03z" fill="#037b0b"></path><path d="M104.81 291.47L123.7 291.47L123.7 310.36L104.81 310.36z" fill="#d3b714"></path><path d="M137.92 138.06 a1.24 1.24 0 1 0 2.48 0 a1.24 1.24 0 1 0 -2.48 0z" fill="#e73635"></path><path d="M362.7 203.77 a4.17 4.17 0 1 0 8.34 0 a4.17 4.17 0 1 0 -8.34 0z" fill="#037b0b"></path><path d="M332.51 234.48 a0.82 0.82 0 1 0 1.64 0 a0.82 0.82 0 1 0 -1.64 0z" stroke="#037b0b"></path><path d="M125.66 261.93a18.78 18.78 0 1 0-37.56 0.24z" stroke="#d3b714"></path><path d="M728.68 493.97L755.82 493.97L755.82 521.11L728.68 521.11z" fill="#037b0b"></path><path d="M618.94 271.25 a21.58 21.58 0 1 0 43.16 0 a21.58 21.58 0 1 0 -43.16 0z" stroke="#037b0b"></path><path d="M1230.14 77.8 a19.55 19.55 0 1 0 39.1 0 a19.55 19.55 0 1 0 -39.1 0z" stroke="#037b0b"></path><path d="M1353.54 350.73a54.79 54.79 0 1 0-58.73-92.51z" fill="#e73635"></path><path d="M10.57 113.28L35.04 113.28L35.04 137.75L10.57 137.75z" stroke="#d3b714"></path><path d="M187.24 511.78 a18.68 18.68 0 1 0 37.36 0 a18.68 18.68 0 1 0 -37.36 0z" stroke="#d3b714"></path><path d="M255.67 328.43 a27.8 27.8 0 1 0 55.6 0 a27.8 27.8 0 1 0 -55.6 0z" stroke="#e73635"></path><path d="M33.84 75.78L35.79 75.78L35.79 102.77L33.84 102.77z" stroke="#d3b714"></path><path d="M456.83 140.37L467.3 140.37L467.3 152.76L456.83 152.76z" stroke="#037b0b"></path><path d="M1169.48 256.18 a41.83 41.83 0 1 0 83.66 0 a41.83 41.83 0 1 0 -83.66 0z" fill="#037b0b"></path><path d="M782.89 177.04 a7.55 7.55 0 1 0 15.1 0 a7.55 7.55 0 1 0 -15.1 0z" fill="#037b0b"></path></g><defs><mask id="SvgjsMask1008"><rect width="1440" height="560" fill="#ffffff"></rect></mask></defs></svg>